<?xml version="1.0" encoding="utf-8"?>
<!-- Generator: Adobe Illustrator 19.2.1, SVG Export Plug-In . SVG Version: 6.00 Build 0)  -->
<!DOCTYPE svg PUBLIC "-//W3C//DTD SVG 1.1//EN" "http://www.w3.org/Graphics/SVG/1.1/DTD/svg11.dtd">
<svg version="1.1" id="Layer_1" xmlns="http://www.w3.org/2000/svg" xmlns:xlink="http://www.w3.org/1999/xlink" x="0px" y="0px"
	 viewBox="0 0 165 73" style="enable-background:new 0 0 165 73;" xml:space="preserve">
<style type="text/css">
	.st0{fill-rule:evenodd;clip-rule:evenodd;fill:#AC1F2D;}
	.st1{fill-rule:evenodd;clip-rule:evenodd;fill:#26215F;}
</style>
<g>
	<path class="st0" d="M45.3,14.9c-2.4-3.3-5.1-5.8-8-7.3C34.3,6,31,5.2,27.2,5.2c-6,0-11,2.2-15.3,6.6c-4.2,4.4-6.3,9.7-6.3,15.7
		c0,6.5,2.1,11.9,6.3,16.3c4.2,4.4,9.3,6.6,15.3,6.6c3.7,0,7-0.8,10-2.3c3-1.5,5.6-3.8,7.8-6.9h6.2c-2.4,4.5-5.7,8.1-9.8,10.6
		c-4.1,2.5-8.7,3.7-13.8,3.7c-7.9,0-14.4-2.7-19.7-8C2.6,42.2,0,35.5,0,27.5c0-3.7,0.7-7.3,2.1-10.7c1.4-3.4,3.5-6.4,6.2-9.1
		c2.5-2.5,5.4-4.5,8.6-5.8c3.2-1.3,6.6-2,10.3-2c5.3,0,10.1,1.3,14.3,3.9c4.2,2.6,7.6,6.3,10.1,11H45.3z"/>
	<path class="st0" d="M59.8,6.2v43.3h10.9c4.9,0,8.9-1,12.2-2.9c0.8,1,1.6,1.9,2.5,2.8c0.3,0.3,0.7,0.7,1,1
		c-2.1,1.4-4.4,2.4-6.8,3.1c-2.6,0.7-6.7,1-12.1,1H54.7V1.1h15.2c4.2,0,7.7,0.4,10.6,1.3c2.9,0.8,5.4,2.2,7.5,4
		c3.1,2.6,5.4,5.7,7.1,9.4c1.7,3.7,2.5,7.7,2.5,11.9c0,4.7-0.9,9-2.8,12.9c-0.3,0.7-0.7,1.3-1,2c-0.2-0.2-0.3-0.3-0.5-0.5
		c-1.2-1.3-2.3-2.7-3.1-4.2c1.2-2.9,1.8-6.4,1.8-10.3c0-3.5-0.6-6.7-1.9-9.7c-1.3-3-3-5.5-5.4-7.5c-1.7-1.5-3.7-2.6-5.8-3.2
		c-2.2-0.7-5.3-1-9.4-1H59.8z"/>
	<path class="st1" d="M124.8,14.9c-2.4-3.3-5.1-5.8-8-7.3c-3-1.6-6.3-2.3-10.1-2.3c-4.6,0-8.7,1.3-12.3,4c-1.1-1.4-2.3-2.8-3.6-4
		c1.8-1.3,3.7-2.4,5.7-3.2c3.2-1.3,6.6-2,10.3-2c5.3,0,10.1,1.3,14.3,3.9c4.2,2.6,7.6,6.3,10.1,11H124.8L124.8,14.9z M87.2,17.8
		c-0.9-1.8-2.1-3.5-3.6-4.9c-0.8,1.2-1.4,2.5-2,3.9c-1.4,3.4-2.1,6.9-2.1,10.7c0,8,2.6,14.7,7.9,20.1c5.3,5.4,11.8,8,19.7,8
		c5.1,0,9.7-1.2,13.8-3.7c4.1-2.5,7.4-6,9.8-10.6h-6.2c-2.2,3.1-4.8,5.4-7.8,6.9c-3,1.5-6.3,2.3-10,2.3c-6,0-11.1-2.2-15.3-6.6
		C87.2,39.5,85,34,85,27.5C85,24,85.8,20.8,87.2,17.8z"/>
	<path class="st0" d="M139.5,29.3v20.2h7.4c4.3,0,7.5-0.8,9.6-2.5c2.1-1.6,3.1-4.2,3.1-7.6c0-3.4-1.1-5.9-3.2-7.6
		c-2.1-1.7-5.3-2.5-9.6-2.5H139.5L139.5,29.3z M139.5,6.2v18h3.2c5.2,0,8.8-0.7,10.9-2.1c2.1-1.4,3.1-3.8,3.1-7c0-3.1-1-5.3-3-6.7
		c-2-1.4-5.2-2.1-9.6-2.1H139.5L139.5,6.2z M134.5,1.1h10c6.1,0,10.5,1.1,13.3,3.4c2.8,2.3,4.3,5.9,4.3,10.7c0,2.4-0.5,4.5-1.4,6.3
		c-1,1.7-2.4,3.2-4.3,4.3c2.9,1.2,5.1,2.9,6.5,5.1c1.4,2.2,2.2,4.8,2.2,7.9c0,5.4-1.5,9.4-4.5,12c-3,2.5-7.7,3.8-14.2,3.8h-11.8V1.1
		z"/>
</g>
<g>
	<path class="st1" d="M6.3,70.1c-0.5,0.2-1.1,0.3-1.7,0.3c-2.2,0-3.2-1.1-3.2-3.2c0-2,1.1-3,3.2-3c0.6,0,1.2,0.1,1.7,0.3V65
		c-0.5-0.2-1.1-0.3-1.6-0.3c-1.7,0-2.5,0.8-2.5,2.4c0,1.7,0.8,2.6,2.5,2.6c0.6,0,1.1-0.1,1.6-0.3V70.1L6.3,70.1z M8.2,67.2
		c0,1.7,0.8,2.5,2.3,2.5c1.5,0,2.2-0.8,2.2-2.5c0-1.6-0.7-2.5-2.2-2.5C9,64.7,8.2,65.5,8.2,67.2L8.2,67.2z M7.4,67.2
		c0-2.1,1-3.1,3.1-3.1c2,0,3,1,3,3.1c0,2.1-1,3.1-3,3.1C8.4,70.3,7.4,69.3,7.4,67.2L7.4,67.2z M14.7,67.9v-3.8h0.8v3.8
		c0,1.2,0.6,1.8,1.8,1.8c1.2,0,1.8-0.6,1.8-1.8v-3.8h0.8v3.8c0,1.6-0.9,2.4-2.6,2.4C15.6,70.3,14.7,69.5,14.7,67.9L14.7,67.9z
		 M21.3,70.3v-6.2h0.8l3.8,5v-5h0.8v6.2h-0.8l-3.8-5v5H21.3L21.3,70.3z M32.7,70.1c-0.5,0.2-1.1,0.3-1.7,0.3c-2.2,0-3.2-1.1-3.2-3.2
		c0-2,1.1-3,3.2-3c0.6,0,1.2,0.1,1.7,0.3V65c-0.5-0.2-1.1-0.3-1.6-0.3c-1.7,0-2.5,0.8-2.5,2.4c0,1.7,0.8,2.6,2.5,2.6
		c0.6,0,1.1-0.1,1.6-0.3V70.1L32.7,70.1z M34.9,64.1v6.2h-0.8v-6.2H34.9L34.9,64.1z M37.3,64.1v5.5h3.2v0.6h-4v-6.2H37.3L37.3,64.1z
		 M44.3,67.2c0,1.7,0.8,2.5,2.3,2.5c1.5,0,2.2-0.8,2.2-2.5c0-1.6-0.7-2.5-2.2-2.5C45,64.7,44.3,65.5,44.3,67.2L44.3,67.2z
		 M43.4,67.2c0-2.1,1-3.1,3.1-3.1c2,0,3,1,3,3.1c0,2.1-1,3.1-3,3.1C44.5,70.3,43.4,69.3,43.4,67.2L43.4,67.2z M50.8,70.3v-6.2h0.8
		l3.8,5v-5h0.8v6.2h-0.8l-3.8-5v5H50.8L50.8,70.3z M62,69.6c1.5,0,2.3-0.9,2.3-2.6c0-1.5-0.8-2.3-2.3-2.3h-1.4v4.9H62L62,69.6z
		 M59.7,70.3v-6.2H62c2,0,3.1,1,3.1,2.9c0,2.2-1,3.2-3.1,3.2H59.7L59.7,70.3z M66.4,70.3h-0.8l2.6-6.2h0.9l2.6,6.2h-0.9L70,68.3h-2
		l0.2-0.6h1.5l-1.1-2.8L66.4,70.3L66.4,70.3z M73.5,64.1v6.2h-0.8v-6.2H73.5L73.5,64.1z M75,70.3v-6.2h2.6c1.2,0,1.8,0.5,1.8,1.5
		c0,0.8-0.6,1.4-1.7,1.8l2.1,2.9h-1.1l-2-2.8V67c1.2-0.2,1.8-0.6,1.8-1.4c0-0.6-0.3-0.9-1-0.9h-1.8v5.5H75L75,70.3z M80,64.1h0.9
		l1.8,3.2l1.8-3.2h0.9l-2.3,4v2.2h-0.8v-2.2L80,64.1L80,64.1z M93.1,70.1c-0.5,0.2-1.1,0.3-1.7,0.3c-2.2,0-3.2-1.1-3.2-3.2
		c0-2,1.1-3,3.2-3c0.6,0,1.2,0.1,1.7,0.3V65c-0.5-0.2-1.1-0.3-1.6-0.3c-1.7,0-2.5,0.8-2.5,2.4c0,1.7,0.8,2.6,2.5,2.6
		c0.6,0,1.1-0.1,1.6-0.3V70.1L93.1,70.1z M94.6,70.3h-0.8l2.6-6.2h0.9l2.6,6.2H99l-0.8-1.9h-2l0.2-0.6h1.5l-1.1-2.8L94.6,70.3
		L94.6,70.3z M104.2,64.1h-4.7v0.6h1.9v5.5h0.8v-5.5h1.9V64.1L104.2,64.1z M109.3,64.1v0.6h-1.9v5.5h-0.8v-5.5h-1.9v-0.6H109.3
		L109.3,64.1z M111.1,64.1v5.5h3.2v0.6h-4v-6.2H111.1L111.1,64.1z M119.2,64.1v0.6H116v2.1h3.1v0.6H116v2.2h3.3v0.6h-4.1v-6.2H119.2
		L119.2,64.1z M122.7,70.3v-6.2h2.6c1.2,0,1.8,0.5,1.8,1.4c0,0.7-0.4,1.2-1.1,1.5c0.8,0.2,1.2,0.6,1.2,1.4c0,1.2-0.6,1.8-1.9,1.8
		H122.7L122.7,70.3z M125.2,69.6c0.7,0,1.1-0.4,1.1-1.1c0-0.7-0.5-1.1-1.5-1.1h-0.3v-0.5c1.2-0.2,1.8-0.6,1.8-1.3
		c0-0.6-0.3-0.9-1-0.9h-1.8v4.9H125.2L125.2,69.6z M128.4,70.3v-6.2h2.6c1.2,0,1.8,0.5,1.8,1.5c0,0.8-0.6,1.4-1.7,1.8l2.1,2.9h-1.1
		l-2-2.8V67c1.2-0.2,1.8-0.6,1.8-1.4c0-0.6-0.3-0.9-1-0.9h-1.8v5.5H128.4L128.4,70.3z M138,64.1v0.6h-3.2v2.1h3.1v0.6h-3.1v2.2h3.3
		v0.6H134v-6.2H138L138,64.1z M143.3,64.1v0.6h-3.2v2.1h3.1v0.6h-3.1v2.2h3.3v0.6h-4.1v-6.2H143.3L143.3,64.1z M146.8,69.6
		c1.5,0,2.3-0.9,2.3-2.6c0-1.5-0.8-2.3-2.3-2.3h-1.4v4.9H146.8L146.8,69.6z M144.6,70.3v-6.2h2.2c2,0,3.1,1,3.1,2.9
		c0,2.2-1,3.2-3.1,3.2H144.6L144.6,70.3z M152,64.1v6.2h-0.8v-6.2H152L152,64.1z M153.6,70.3v-6.2h0.8l3.8,5v-5h0.8v6.2h-0.8l-3.8-5
		v5H153.6L153.6,70.3z M165,70c-0.5,0.2-1,0.3-1.6,0.3c-2.2,0-3.3-1.1-3.3-3.2c0-2,1.1-3,3.2-3c0.6,0,1.2,0.1,1.7,0.3V65
		c-0.5-0.2-1.1-0.3-1.6-0.3c-1.7,0-2.5,0.8-2.5,2.4c0,1.7,0.8,2.6,2.5,2.6c0.3,0,0.6,0,0.9-0.1v-2.1h0.8V70z"/>
	<path class="st1" d="M1.3,61.4H165V62H1.3V61.4L1.3,61.4z M1.3,72.4H165V73H1.3V72.4z"/>
</g>
</svg>
